<mxfile host="app.diagrams.net" modified="2023-08-14T00:58:22.851Z" agent="Mozilla/5.0 (Windows NT 10.0; Win64; x64; rv:109.0) Gecko/20100101 Firefox/116.0" etag="z6sBb25cCR1EwMRha7JC" version="21.6.8" type="device">
  <diagram id="C5RBs43oDa-KdzZeNtuy" name="Page-1">
    <mxGraphModel dx="1352" dy="530" grid="1" gridSize="10" guides="1" tooltips="1" connect="1" arrows="1" fold="1" page="1" pageScale="1" pageWidth="827" pageHeight="1169" math="0" shadow="0">
      <root>
        <mxCell id="WIyWlLk6GJQsqaUBKTNV-0" />
        <mxCell id="WIyWlLk6GJQsqaUBKTNV-1" parent="WIyWlLk6GJQsqaUBKTNV-0" />
        <mxCell id="-2c-giSrzUMsaxNqwSOu-0" value="Start" style="rounded=1;whiteSpace=wrap;html=1;" vertex="1" parent="WIyWlLk6GJQsqaUBKTNV-1">
          <mxGeometry x="340" y="30" width="100" height="40" as="geometry" />
        </mxCell>
        <mxCell id="-2c-giSrzUMsaxNqwSOu-1" value="" style="endArrow=classic;html=1;rounded=0;exitX=0.5;exitY=1;exitDx=0;exitDy=0;" edge="1" parent="WIyWlLk6GJQsqaUBKTNV-1" source="-2c-giSrzUMsaxNqwSOu-0">
          <mxGeometry width="50" height="50" relative="1" as="geometry">
            <mxPoint x="350" y="230" as="sourcePoint" />
            <mxPoint x="390" y="110" as="targetPoint" />
          </mxGeometry>
        </mxCell>
        <mxCell id="-2c-giSrzUMsaxNqwSOu-2" value="&lt;div&gt;int n;&lt;br&gt;&lt;/div&gt;&lt;div&gt;string primos = &quot;Numeros primos: 2&quot;;&lt;br&gt;&lt;/div&gt;" style="rounded=0;whiteSpace=wrap;html=1;" vertex="1" parent="WIyWlLk6GJQsqaUBKTNV-1">
          <mxGeometry x="300" y="110" width="200" height="50" as="geometry" />
        </mxCell>
        <mxCell id="-2c-giSrzUMsaxNqwSOu-3" value="&quot;Ingrese el numero hasta donde quiera obtener los primos&quot;" style="shape=parallelogram;perimeter=parallelogramPerimeter;whiteSpace=wrap;html=1;fixedSize=1;" vertex="1" parent="WIyWlLk6GJQsqaUBKTNV-1">
          <mxGeometry x="290" y="210" width="200" height="60" as="geometry" />
        </mxCell>
        <mxCell id="-2c-giSrzUMsaxNqwSOu-4" value="" style="endArrow=classic;html=1;rounded=0;exitX=0.46;exitY=1.04;exitDx=0;exitDy=0;exitPerimeter=0;entryX=0.5;entryY=0;entryDx=0;entryDy=0;" edge="1" parent="WIyWlLk6GJQsqaUBKTNV-1" source="-2c-giSrzUMsaxNqwSOu-2" target="-2c-giSrzUMsaxNqwSOu-3">
          <mxGeometry width="50" height="50" relative="1" as="geometry">
            <mxPoint x="530" y="400" as="sourcePoint" />
            <mxPoint x="580" y="350" as="targetPoint" />
          </mxGeometry>
        </mxCell>
        <mxCell id="-2c-giSrzUMsaxNqwSOu-6" value="" style="ellipse;whiteSpace=wrap;html=1;aspect=fixed;" vertex="1" parent="WIyWlLk6GJQsqaUBKTNV-1">
          <mxGeometry x="364" y="310" width="50" height="50" as="geometry" />
        </mxCell>
        <mxCell id="-2c-giSrzUMsaxNqwSOu-7" value="" style="endArrow=classic;html=1;rounded=0;exitX=0.5;exitY=1;exitDx=0;exitDy=0;entryX=0.5;entryY=0;entryDx=0;entryDy=0;" edge="1" parent="WIyWlLk6GJQsqaUBKTNV-1" source="-2c-giSrzUMsaxNqwSOu-3" target="-2c-giSrzUMsaxNqwSOu-6">
          <mxGeometry width="50" height="50" relative="1" as="geometry">
            <mxPoint x="550" y="340" as="sourcePoint" />
            <mxPoint x="600" y="290" as="targetPoint" />
          </mxGeometry>
        </mxCell>
        <mxCell id="-2c-giSrzUMsaxNqwSOu-8" value="i &amp;lt;= n" style="rhombus;whiteSpace=wrap;html=1;" vertex="1" parent="WIyWlLk6GJQsqaUBKTNV-1">
          <mxGeometry x="329" y="410" width="120" height="110" as="geometry" />
        </mxCell>
        <mxCell id="-2c-giSrzUMsaxNqwSOu-9" value="i += 2" style="rounded=0;whiteSpace=wrap;html=1;" vertex="1" parent="WIyWlLk6GJQsqaUBKTNV-1">
          <mxGeometry x="560" y="300" width="120" height="60" as="geometry" />
        </mxCell>
        <mxCell id="-2c-giSrzUMsaxNqwSOu-10" value="" style="endArrow=classic;html=1;rounded=0;exitX=0.5;exitY=1;exitDx=0;exitDy=0;entryX=0.5;entryY=0;entryDx=0;entryDy=0;" edge="1" parent="WIyWlLk6GJQsqaUBKTNV-1" source="-2c-giSrzUMsaxNqwSOu-6" target="-2c-giSrzUMsaxNqwSOu-8">
          <mxGeometry width="50" height="50" relative="1" as="geometry">
            <mxPoint x="130" y="470" as="sourcePoint" />
            <mxPoint x="180" y="420" as="targetPoint" />
          </mxGeometry>
        </mxCell>
        <mxCell id="-2c-giSrzUMsaxNqwSOu-12" value="" style="endArrow=classic;html=1;rounded=0;exitX=1;exitY=0.5;exitDx=0;exitDy=0;entryX=-0.033;entryY=0.4;entryDx=0;entryDy=0;entryPerimeter=0;" edge="1" parent="WIyWlLk6GJQsqaUBKTNV-1" source="-2c-giSrzUMsaxNqwSOu-8" target="-2c-giSrzUMsaxNqwSOu-22">
          <mxGeometry width="50" height="50" relative="1" as="geometry">
            <mxPoint x="550" y="470" as="sourcePoint" />
            <mxPoint x="470" y="540" as="targetPoint" />
          </mxGeometry>
        </mxCell>
        <mxCell id="-2c-giSrzUMsaxNqwSOu-13" value="" style="endArrow=classic;html=1;rounded=0;exitX=0.5;exitY=1;exitDx=0;exitDy=0;" edge="1" parent="WIyWlLk6GJQsqaUBKTNV-1" source="-2c-giSrzUMsaxNqwSOu-8">
          <mxGeometry width="50" height="50" relative="1" as="geometry">
            <mxPoint x="370" y="690" as="sourcePoint" />
            <mxPoint x="390" y="580" as="targetPoint" />
          </mxGeometry>
        </mxCell>
        <mxCell id="-2c-giSrzUMsaxNqwSOu-18" value="No" style="edgeLabel;html=1;align=center;verticalAlign=middle;resizable=0;points=[];" vertex="1" connectable="0" parent="-2c-giSrzUMsaxNqwSOu-13">
          <mxGeometry x="-0.2658" y="2" relative="1" as="geometry">
            <mxPoint as="offset" />
          </mxGeometry>
        </mxCell>
        <mxCell id="-2c-giSrzUMsaxNqwSOu-15" value="j * j &amp;lt; = i" style="rhombus;whiteSpace=wrap;html=1;" vertex="1" parent="WIyWlLk6GJQsqaUBKTNV-1">
          <mxGeometry x="760" y="430" width="80" height="80" as="geometry" />
        </mxCell>
        <mxCell id="-2c-giSrzUMsaxNqwSOu-17" value="" style="endArrow=classic;html=1;rounded=0;exitX=0;exitY=0.5;exitDx=0;exitDy=0;entryX=1;entryY=0.5;entryDx=0;entryDy=0;" edge="1" parent="WIyWlLk6GJQsqaUBKTNV-1" source="-2c-giSrzUMsaxNqwSOu-9" target="-2c-giSrzUMsaxNqwSOu-6">
          <mxGeometry width="50" height="50" relative="1" as="geometry">
            <mxPoint x="570" y="460" as="sourcePoint" />
            <mxPoint x="620" y="410" as="targetPoint" />
          </mxGeometry>
        </mxCell>
        <mxCell id="-2c-giSrzUMsaxNqwSOu-19" value="End" style="rounded=1;whiteSpace=wrap;html=1;" vertex="1" parent="WIyWlLk6GJQsqaUBKTNV-1">
          <mxGeometry x="330" y="720" width="110" height="40" as="geometry" />
        </mxCell>
        <mxCell id="-2c-giSrzUMsaxNqwSOu-20" value="textBox4.Text = primos;" style="rounded=0;whiteSpace=wrap;html=1;" vertex="1" parent="WIyWlLk6GJQsqaUBKTNV-1">
          <mxGeometry x="300" y="585" width="170" height="60" as="geometry" />
        </mxCell>
        <mxCell id="-2c-giSrzUMsaxNqwSOu-21" value="" style="endArrow=classic;html=1;rounded=0;exitX=0.5;exitY=1;exitDx=0;exitDy=0;" edge="1" parent="WIyWlLk6GJQsqaUBKTNV-1" source="-2c-giSrzUMsaxNqwSOu-20">
          <mxGeometry width="50" height="50" relative="1" as="geometry">
            <mxPoint x="520" y="720" as="sourcePoint" />
            <mxPoint x="385" y="720" as="targetPoint" />
          </mxGeometry>
        </mxCell>
        <mxCell id="-2c-giSrzUMsaxNqwSOu-22" value="bool esPrimo = true;" style="rounded=0;whiteSpace=wrap;html=1;" vertex="1" parent="WIyWlLk6GJQsqaUBKTNV-1">
          <mxGeometry x="500" y="440" width="120" height="60" as="geometry" />
        </mxCell>
        <mxCell id="-2c-giSrzUMsaxNqwSOu-23" value="" style="endArrow=classic;html=1;rounded=0;exitX=1;exitY=0.5;exitDx=0;exitDy=0;entryX=0;entryY=0.5;entryDx=0;entryDy=0;" edge="1" parent="WIyWlLk6GJQsqaUBKTNV-1" source="-2c-giSrzUMsaxNqwSOu-22" target="-2c-giSrzUMsaxNqwSOu-15">
          <mxGeometry width="50" height="50" relative="1" as="geometry">
            <mxPoint x="550" y="640" as="sourcePoint" />
            <mxPoint x="600" y="590" as="targetPoint" />
          </mxGeometry>
        </mxCell>
        <mxCell id="-2c-giSrzUMsaxNqwSOu-24" value="" style="endArrow=classic;html=1;rounded=0;exitX=0.5;exitY=1;exitDx=0;exitDy=0;entryX=0.5;entryY=0;entryDx=0;entryDy=0;" edge="1" parent="WIyWlLk6GJQsqaUBKTNV-1" source="-2c-giSrzUMsaxNqwSOu-15" target="-2c-giSrzUMsaxNqwSOu-25">
          <mxGeometry width="50" height="50" relative="1" as="geometry">
            <mxPoint x="650" y="600" as="sourcePoint" />
            <mxPoint x="700" y="550" as="targetPoint" />
          </mxGeometry>
        </mxCell>
        <mxCell id="-2c-giSrzUMsaxNqwSOu-26" value="Si" style="edgeLabel;html=1;align=center;verticalAlign=middle;resizable=0;points=[];" vertex="1" connectable="0" parent="-2c-giSrzUMsaxNqwSOu-24">
          <mxGeometry x="-0.2" y="1" relative="1" as="geometry">
            <mxPoint as="offset" />
          </mxGeometry>
        </mxCell>
        <mxCell id="-2c-giSrzUMsaxNqwSOu-25" value="i % j == 0" style="rhombus;whiteSpace=wrap;html=1;" vertex="1" parent="WIyWlLk6GJQsqaUBKTNV-1">
          <mxGeometry x="710" y="580" width="80" height="80" as="geometry" />
        </mxCell>
        <mxCell id="-2c-giSrzUMsaxNqwSOu-27" value="&lt;div&gt;esPrimo = false;&lt;/div&gt;&lt;div&gt;break;&lt;br&gt;&lt;/div&gt;" style="rounded=0;whiteSpace=wrap;html=1;" vertex="1" parent="WIyWlLk6GJQsqaUBKTNV-1">
          <mxGeometry x="690" y="740" width="120" height="60" as="geometry" />
        </mxCell>
        <mxCell id="-2c-giSrzUMsaxNqwSOu-28" value="" style="endArrow=classic;html=1;rounded=0;exitX=0.5;exitY=1;exitDx=0;exitDy=0;entryX=0.5;entryY=-0.1;entryDx=0;entryDy=0;entryPerimeter=0;" edge="1" parent="WIyWlLk6GJQsqaUBKTNV-1" source="-2c-giSrzUMsaxNqwSOu-25" target="-2c-giSrzUMsaxNqwSOu-27">
          <mxGeometry width="50" height="50" relative="1" as="geometry">
            <mxPoint x="940" y="670" as="sourcePoint" />
            <mxPoint x="990" y="620" as="targetPoint" />
          </mxGeometry>
        </mxCell>
        <mxCell id="-2c-giSrzUMsaxNqwSOu-29" value="Si" style="edgeLabel;html=1;align=center;verticalAlign=middle;resizable=0;points=[];" vertex="1" connectable="0" parent="-2c-giSrzUMsaxNqwSOu-28">
          <mxGeometry x="-0.0588" y="1" relative="1" as="geometry">
            <mxPoint as="offset" />
          </mxGeometry>
        </mxCell>
        <mxCell id="-2c-giSrzUMsaxNqwSOu-30" value="" style="endArrow=classic;html=1;rounded=0;exitX=1;exitY=0.5;exitDx=0;exitDy=0;entryX=0;entryY=0;entryDx=0;entryDy=0;" edge="1" parent="WIyWlLk6GJQsqaUBKTNV-1" source="-2c-giSrzUMsaxNqwSOu-25" target="-2c-giSrzUMsaxNqwSOu-43">
          <mxGeometry width="50" height="50" relative="1" as="geometry">
            <mxPoint x="960" y="630" as="sourcePoint" />
            <mxPoint x="910" y="620" as="targetPoint" />
          </mxGeometry>
        </mxCell>
        <mxCell id="-2c-giSrzUMsaxNqwSOu-31" value="No" style="edgeLabel;html=1;align=center;verticalAlign=middle;resizable=0;points=[];" vertex="1" connectable="0" parent="-2c-giSrzUMsaxNqwSOu-30">
          <mxGeometry x="-0.1562" y="-1" relative="1" as="geometry">
            <mxPoint as="offset" />
          </mxGeometry>
        </mxCell>
        <mxCell id="-2c-giSrzUMsaxNqwSOu-32" value="(esPrimo)" style="rhombus;whiteSpace=wrap;html=1;" vertex="1" parent="WIyWlLk6GJQsqaUBKTNV-1">
          <mxGeometry x="1000" y="660" width="80" height="80" as="geometry" />
        </mxCell>
        <mxCell id="-2c-giSrzUMsaxNqwSOu-33" value="primos += &quot;, &quot; + i.ToString();" style="rounded=0;whiteSpace=wrap;html=1;" vertex="1" parent="WIyWlLk6GJQsqaUBKTNV-1">
          <mxGeometry x="980" y="780" width="150" height="60" as="geometry" />
        </mxCell>
        <mxCell id="-2c-giSrzUMsaxNqwSOu-34" value="Si" style="endArrow=classic;html=1;rounded=0;exitX=0.5;exitY=1;exitDx=0;exitDy=0;entryX=0.4;entryY=-0.017;entryDx=0;entryDy=0;entryPerimeter=0;" edge="1" parent="WIyWlLk6GJQsqaUBKTNV-1" source="-2c-giSrzUMsaxNqwSOu-32" target="-2c-giSrzUMsaxNqwSOu-33">
          <mxGeometry width="50" height="50" relative="1" as="geometry">
            <mxPoint x="1110" y="750" as="sourcePoint" />
            <mxPoint x="1160" y="700" as="targetPoint" />
          </mxGeometry>
        </mxCell>
        <mxCell id="-2c-giSrzUMsaxNqwSOu-36" value="" style="endArrow=classic;html=1;rounded=0;exitX=1;exitY=0.5;exitDx=0;exitDy=0;entryX=0.5;entryY=0;entryDx=0;entryDy=0;" edge="1" parent="WIyWlLk6GJQsqaUBKTNV-1" source="-2c-giSrzUMsaxNqwSOu-15" target="-2c-giSrzUMsaxNqwSOu-32">
          <mxGeometry width="50" height="50" relative="1" as="geometry">
            <mxPoint x="940" y="560" as="sourcePoint" />
            <mxPoint x="1110" y="590" as="targetPoint" />
            <Array as="points">
              <mxPoint x="1040" y="520" />
            </Array>
          </mxGeometry>
        </mxCell>
        <mxCell id="-2c-giSrzUMsaxNqwSOu-37" value="No" style="edgeLabel;html=1;align=center;verticalAlign=middle;resizable=0;points=[];" vertex="1" connectable="0" parent="-2c-giSrzUMsaxNqwSOu-36">
          <mxGeometry x="-0.103" y="-2" relative="1" as="geometry">
            <mxPoint x="-1" as="offset" />
          </mxGeometry>
        </mxCell>
        <mxCell id="-2c-giSrzUMsaxNqwSOu-39" value="" style="endArrow=classic;html=1;rounded=0;exitX=1;exitY=0.5;exitDx=0;exitDy=0;entryX=0;entryY=1;entryDx=0;entryDy=0;" edge="1" parent="WIyWlLk6GJQsqaUBKTNV-1" source="-2c-giSrzUMsaxNqwSOu-27" target="-2c-giSrzUMsaxNqwSOu-43">
          <mxGeometry width="50" height="50" relative="1" as="geometry">
            <mxPoint x="900" y="740" as="sourcePoint" />
            <mxPoint x="920" y="720" as="targetPoint" />
          </mxGeometry>
        </mxCell>
        <mxCell id="-2c-giSrzUMsaxNqwSOu-41" value="j ++;" style="rounded=0;whiteSpace=wrap;html=1;" vertex="1" parent="WIyWlLk6GJQsqaUBKTNV-1">
          <mxGeometry x="880" y="535" width="110" height="50" as="geometry" />
        </mxCell>
        <mxCell id="-2c-giSrzUMsaxNqwSOu-43" value="" style="ellipse;whiteSpace=wrap;html=1;aspect=fixed;" vertex="1" parent="WIyWlLk6GJQsqaUBKTNV-1">
          <mxGeometry x="860" y="640" width="30" height="30" as="geometry" />
        </mxCell>
        <mxCell id="-2c-giSrzUMsaxNqwSOu-45" value="" style="endArrow=classic;html=1;rounded=0;exitX=1;exitY=0.5;exitDx=0;exitDy=0;entryX=0.5;entryY=1;entryDx=0;entryDy=0;" edge="1" parent="WIyWlLk6GJQsqaUBKTNV-1" source="-2c-giSrzUMsaxNqwSOu-43" target="-2c-giSrzUMsaxNqwSOu-41">
          <mxGeometry width="50" height="50" relative="1" as="geometry">
            <mxPoint x="940" y="660" as="sourcePoint" />
            <mxPoint x="990" y="610" as="targetPoint" />
            <Array as="points" />
          </mxGeometry>
        </mxCell>
        <mxCell id="-2c-giSrzUMsaxNqwSOu-46" value="" style="endArrow=classic;html=1;rounded=0;exitX=0.5;exitY=0;exitDx=0;exitDy=0;entryX=0.938;entryY=0.663;entryDx=0;entryDy=0;entryPerimeter=0;" edge="1" parent="WIyWlLk6GJQsqaUBKTNV-1" source="-2c-giSrzUMsaxNqwSOu-41" target="-2c-giSrzUMsaxNqwSOu-15">
          <mxGeometry width="50" height="50" relative="1" as="geometry">
            <mxPoint x="830" y="560" as="sourcePoint" />
            <mxPoint x="880" y="510" as="targetPoint" />
          </mxGeometry>
        </mxCell>
        <mxCell id="-2c-giSrzUMsaxNqwSOu-47" value="" style="ellipse;whiteSpace=wrap;html=1;aspect=fixed;" vertex="1" parent="WIyWlLk6GJQsqaUBKTNV-1">
          <mxGeometry x="1120" y="390" width="50" height="50" as="geometry" />
        </mxCell>
        <mxCell id="-2c-giSrzUMsaxNqwSOu-48" value="" style="endArrow=classic;html=1;rounded=0;exitX=1;exitY=0.5;exitDx=0;exitDy=0;entryX=0.5;entryY=1;entryDx=0;entryDy=0;" edge="1" parent="WIyWlLk6GJQsqaUBKTNV-1" source="-2c-giSrzUMsaxNqwSOu-33" target="-2c-giSrzUMsaxNqwSOu-47">
          <mxGeometry width="50" height="50" relative="1" as="geometry">
            <mxPoint x="1180" y="790" as="sourcePoint" />
            <mxPoint x="1210" y="620" as="targetPoint" />
            <Array as="points">
              <mxPoint x="1210" y="710" />
            </Array>
          </mxGeometry>
        </mxCell>
        <mxCell id="-2c-giSrzUMsaxNqwSOu-49" value="" style="endArrow=classic;html=1;rounded=0;exitX=1;exitY=0.5;exitDx=0;exitDy=0;entryX=0;entryY=1;entryDx=0;entryDy=0;" edge="1" parent="WIyWlLk6GJQsqaUBKTNV-1" source="-2c-giSrzUMsaxNqwSOu-32" target="-2c-giSrzUMsaxNqwSOu-47">
          <mxGeometry width="50" height="50" relative="1" as="geometry">
            <mxPoint x="1050" y="430" as="sourcePoint" />
            <mxPoint x="1100" y="380" as="targetPoint" />
          </mxGeometry>
        </mxCell>
        <mxCell id="-2c-giSrzUMsaxNqwSOu-50" value="No" style="edgeLabel;html=1;align=center;verticalAlign=middle;resizable=0;points=[];" vertex="1" connectable="0" parent="-2c-giSrzUMsaxNqwSOu-49">
          <mxGeometry x="0.0417" y="-1" relative="1" as="geometry">
            <mxPoint as="offset" />
          </mxGeometry>
        </mxCell>
        <mxCell id="-2c-giSrzUMsaxNqwSOu-51" value="" style="endArrow=classic;html=1;rounded=0;exitX=0;exitY=0.36;exitDx=0;exitDy=0;exitPerimeter=0;entryX=1;entryY=0.5;entryDx=0;entryDy=0;" edge="1" parent="WIyWlLk6GJQsqaUBKTNV-1" source="-2c-giSrzUMsaxNqwSOu-47" target="-2c-giSrzUMsaxNqwSOu-9">
          <mxGeometry width="50" height="50" relative="1" as="geometry">
            <mxPoint x="900" y="410" as="sourcePoint" />
            <mxPoint x="950" y="360" as="targetPoint" />
          </mxGeometry>
        </mxCell>
      </root>
    </mxGraphModel>
  </diagram>
</mxfile>
